<mxfile host="app.diagrams.net" agent="Mozilla/5.0 (Windows NT 10.0; Win64; x64; rv:141.0) Gecko/20100101 Firefox/141.0" version="28.0.7">
  <diagram name="Page-1" id="IJvKG8BKb0_-6xwxXonR">
    <mxGraphModel dx="1375" dy="779" grid="1" gridSize="10" guides="1" tooltips="1" connect="1" arrows="1" fold="1" page="1" pageScale="1" pageWidth="850" pageHeight="1100" math="0" shadow="0">
      <root>
        <mxCell id="0" />
        <mxCell id="1" parent="0" />
        <mxCell id="PUch6x0PjKLB-Qv1Z2Le-1" value="&lt;span&gt;&lt;span data-dobid=&quot;hdw&quot;&gt;reader&lt;/span&gt;&lt;/span&gt;" style="shape=umlActor;verticalLabelPosition=bottom;verticalAlign=top;html=1;outlineConnect=0;" vertex="1" parent="1">
          <mxGeometry x="780" y="200" width="30" height="60" as="geometry" />
        </mxCell>
        <mxCell id="PUch6x0PjKLB-Qv1Z2Le-2" value="" style="rounded=0;whiteSpace=wrap;html=1;" vertex="1" parent="1">
          <mxGeometry x="230" y="40" width="460" height="490" as="geometry" />
        </mxCell>
        <mxCell id="PUch6x0PjKLB-Qv1Z2Le-3" value="main page" style="text;html=1;align=center;verticalAlign=middle;whiteSpace=wrap;rounded=0;" vertex="1" parent="1">
          <mxGeometry x="440" y="40" width="60" height="30" as="geometry" />
        </mxCell>
        <mxCell id="PUch6x0PjKLB-Qv1Z2Le-5" value="Viewing the newest post" style="ellipse;html=1;whiteSpace=wrap;" vertex="1" parent="1">
          <mxGeometry x="530" y="100" width="87.5" height="70" as="geometry" />
        </mxCell>
        <mxCell id="PUch6x0PjKLB-Qv1Z2Le-6" value="selecting the targeted post" style="ellipse;html=1;whiteSpace=wrap;" vertex="1" parent="1">
          <mxGeometry x="533.75" y="180" width="80" height="60" as="geometry" />
        </mxCell>
        <mxCell id="PUch6x0PjKLB-Qv1Z2Le-7" value="Log in or Sign up" style="ellipse;html=1;whiteSpace=wrap;" vertex="1" parent="1">
          <mxGeometry x="532.5" y="260" width="85" height="60" as="geometry" />
        </mxCell>
        <mxCell id="PUch6x0PjKLB-Qv1Z2Le-8" value="Users can comment and vote like on Reddit" style="ellipse;html=1;whiteSpace=wrap;" vertex="1" parent="1">
          <mxGeometry x="534.38" y="340" width="91.25" height="80" as="geometry" />
        </mxCell>
        <mxCell id="PUch6x0PjKLB-Qv1Z2Le-9" value="" style="endArrow=none;html=1;rounded=0;" edge="1" parent="1" source="PUch6x0PjKLB-Qv1Z2Le-5" target="PUch6x0PjKLB-Qv1Z2Le-1">
          <mxGeometry width="50" height="50" relative="1" as="geometry">
            <mxPoint x="400" y="420" as="sourcePoint" />
            <mxPoint x="450" y="370" as="targetPoint" />
          </mxGeometry>
        </mxCell>
        <mxCell id="PUch6x0PjKLB-Qv1Z2Le-10" value="" style="endArrow=none;html=1;rounded=0;entryX=0.5;entryY=0.5;entryDx=0;entryDy=0;entryPerimeter=0;" edge="1" parent="1" source="PUch6x0PjKLB-Qv1Z2Le-6" target="PUch6x0PjKLB-Qv1Z2Le-1">
          <mxGeometry width="50" height="50" relative="1" as="geometry">
            <mxPoint x="400" y="420" as="sourcePoint" />
            <mxPoint x="450" y="370" as="targetPoint" />
          </mxGeometry>
        </mxCell>
        <mxCell id="PUch6x0PjKLB-Qv1Z2Le-11" value="" style="endArrow=none;html=1;rounded=0;" edge="1" parent="1" source="PUch6x0PjKLB-Qv1Z2Le-7" target="PUch6x0PjKLB-Qv1Z2Le-1">
          <mxGeometry width="50" height="50" relative="1" as="geometry">
            <mxPoint x="400" y="420" as="sourcePoint" />
            <mxPoint x="450" y="370" as="targetPoint" />
          </mxGeometry>
        </mxCell>
        <mxCell id="PUch6x0PjKLB-Qv1Z2Le-12" value="" style="endArrow=none;html=1;rounded=0;" edge="1" parent="1" source="PUch6x0PjKLB-Qv1Z2Le-8" target="PUch6x0PjKLB-Qv1Z2Le-1">
          <mxGeometry width="50" height="50" relative="1" as="geometry">
            <mxPoint x="140" y="470" as="sourcePoint" />
            <mxPoint x="190" y="420" as="targetPoint" />
          </mxGeometry>
        </mxCell>
        <mxCell id="PUch6x0PjKLB-Qv1Z2Le-13" value="verify password" style="ellipse;html=1;whiteSpace=wrap;" vertex="1" parent="1">
          <mxGeometry x="400" y="220" width="80" height="50" as="geometry" />
        </mxCell>
        <mxCell id="PUch6x0PjKLB-Qv1Z2Le-15" value="&amp;lt;&amp;lt;include&amp;gt;&amp;gt;" style="html=1;verticalAlign=bottom;labelBackgroundColor=none;endArrow=open;endFill=0;dashed=1;rounded=0;" edge="1" parent="1" source="PUch6x0PjKLB-Qv1Z2Le-7" target="PUch6x0PjKLB-Qv1Z2Le-13">
          <mxGeometry width="160" relative="1" as="geometry">
            <mxPoint x="350" y="390" as="sourcePoint" />
            <mxPoint x="510" y="390" as="targetPoint" />
          </mxGeometry>
        </mxCell>
        <mxCell id="PUch6x0PjKLB-Qv1Z2Le-16" value="verify email" style="ellipse;html=1;whiteSpace=wrap;" vertex="1" parent="1">
          <mxGeometry x="400" y="280" width="80" height="50" as="geometry" />
        </mxCell>
        <mxCell id="PUch6x0PjKLB-Qv1Z2Le-17" value="display error" style="ellipse;html=1;whiteSpace=wrap;" vertex="1" parent="1">
          <mxGeometry x="400" y="330" width="80" height="50" as="geometry" />
        </mxCell>
        <mxCell id="PUch6x0PjKLB-Qv1Z2Le-18" value="&amp;lt;&amp;lt;include&amp;gt;&amp;gt;" style="html=1;verticalAlign=bottom;labelBackgroundColor=none;endArrow=open;endFill=0;dashed=1;rounded=0;exitX=0.112;exitY=0.733;exitDx=0;exitDy=0;exitPerimeter=0;entryX=1;entryY=0.5;entryDx=0;entryDy=0;" edge="1" parent="1" source="PUch6x0PjKLB-Qv1Z2Le-7" target="PUch6x0PjKLB-Qv1Z2Le-16">
          <mxGeometry width="160" relative="1" as="geometry">
            <mxPoint x="350" y="390" as="sourcePoint" />
            <mxPoint x="510" y="390" as="targetPoint" />
          </mxGeometry>
        </mxCell>
        <mxCell id="PUch6x0PjKLB-Qv1Z2Le-19" value="&amp;lt;&amp;lt;extend&amp;gt;&amp;gt;" style="html=1;verticalAlign=bottom;labelBackgroundColor=none;endArrow=open;endFill=0;dashed=1;rounded=0;exitX=1;exitY=0.5;exitDx=0;exitDy=0;entryX=0;entryY=1;entryDx=0;entryDy=0;" edge="1" parent="1" source="PUch6x0PjKLB-Qv1Z2Le-17" target="PUch6x0PjKLB-Qv1Z2Le-7">
          <mxGeometry width="160" relative="1" as="geometry">
            <mxPoint x="350" y="390" as="sourcePoint" />
            <mxPoint x="510" y="390" as="targetPoint" />
          </mxGeometry>
        </mxCell>
        <mxCell id="PUch6x0PjKLB-Qv1Z2Le-20" value="writer" style="shape=umlActor;verticalLabelPosition=bottom;verticalAlign=top;html=1;" vertex="1" parent="1">
          <mxGeometry x="170" y="210" width="40" height="60" as="geometry" />
        </mxCell>
        <mxCell id="PUch6x0PjKLB-Qv1Z2Le-25" value="posts" style="ellipse;html=1;whiteSpace=wrap;" vertex="1" parent="1">
          <mxGeometry x="388" y="110" width="75" height="40" as="geometry" />
        </mxCell>
        <mxCell id="PUch6x0PjKLB-Qv1Z2Le-26" value="" style="endArrow=none;html=1;rounded=0;exitX=0.525;exitY=0.65;exitDx=0;exitDy=0;exitPerimeter=0;entryX=0;entryY=0.5;entryDx=0;entryDy=0;" edge="1" parent="1" source="PUch6x0PjKLB-Qv1Z2Le-20" target="PUch6x0PjKLB-Qv1Z2Le-25">
          <mxGeometry width="50" height="50" relative="1" as="geometry">
            <mxPoint x="460" y="390" as="sourcePoint" />
            <mxPoint x="510" y="340" as="targetPoint" />
          </mxGeometry>
        </mxCell>
        <mxCell id="PUch6x0PjKLB-Qv1Z2Le-29" value="&amp;lt;&amp;lt;include&amp;gt;&amp;gt;" style="html=1;verticalAlign=bottom;labelBackgroundColor=none;endArrow=open;endFill=0;dashed=1;rounded=0;exitX=0;exitY=0.5;exitDx=0;exitDy=0;" edge="1" parent="1" source="PUch6x0PjKLB-Qv1Z2Le-5" target="PUch6x0PjKLB-Qv1Z2Le-25">
          <mxGeometry width="160" relative="1" as="geometry">
            <mxPoint x="400" y="360" as="sourcePoint" />
            <mxPoint x="560" y="360" as="targetPoint" />
          </mxGeometry>
        </mxCell>
        <mxCell id="PUch6x0PjKLB-Qv1Z2Le-30" value="admin verification" style="ellipse;html=1;whiteSpace=wrap;" vertex="1" parent="1">
          <mxGeometry x="270" y="205" width="88" height="55" as="geometry" />
        </mxCell>
        <mxCell id="PUch6x0PjKLB-Qv1Z2Le-31" value="&amp;lt;&amp;lt;include&amp;gt;&amp;gt;" style="html=1;verticalAlign=bottom;labelBackgroundColor=none;endArrow=open;endFill=0;dashed=1;rounded=0;exitX=1;exitY=0.5;exitDx=0;exitDy=0;" edge="1" parent="1" source="PUch6x0PjKLB-Qv1Z2Le-30" target="PUch6x0PjKLB-Qv1Z2Le-25">
          <mxGeometry width="160" relative="1" as="geometry">
            <mxPoint x="360" y="190" as="sourcePoint" />
            <mxPoint x="520" y="190" as="targetPoint" />
          </mxGeometry>
        </mxCell>
        <mxCell id="PUch6x0PjKLB-Qv1Z2Le-32" value="&#xa;Inbox&#xa;&#xa;" style="whiteSpace=wrap;html=1;aspect=fixed;" vertex="1" parent="1">
          <mxGeometry x="180" y="570" width="295" height="295" as="geometry" />
        </mxCell>
        <mxCell id="PUch6x0PjKLB-Qv1Z2Le-33" value="admin pane" style="text;html=1;align=center;verticalAlign=middle;whiteSpace=wrap;rounded=0;" vertex="1" parent="1">
          <mxGeometry x="280" y="570" width="60" height="30" as="geometry" />
        </mxCell>
        <mxCell id="PUch6x0PjKLB-Qv1Z2Le-34" value="&lt;div&gt;post&lt;/div&gt;&lt;div&gt;&amp;nbsp;verification&lt;/div&gt;" style="ellipse;html=1;whiteSpace=wrap;" vertex="1" parent="1">
          <mxGeometry x="288.5" y="610" width="88" height="55" as="geometry" />
        </mxCell>
        <mxCell id="PUch6x0PjKLB-Qv1Z2Le-35" value="" style="endArrow=none;html=1;rounded=0;exitX=0.5;exitY=0;exitDx=0;exitDy=0;entryX=0.648;entryY=1.018;entryDx=0;entryDy=0;entryPerimeter=0;" edge="1" parent="1" source="PUch6x0PjKLB-Qv1Z2Le-34" target="PUch6x0PjKLB-Qv1Z2Le-30">
          <mxGeometry width="50" height="50" relative="1" as="geometry">
            <mxPoint x="570" y="550" as="sourcePoint" />
            <mxPoint x="620" y="500" as="targetPoint" />
          </mxGeometry>
        </mxCell>
        <mxCell id="PUch6x0PjKLB-Qv1Z2Le-36" value="user management" style="ellipse;html=1;whiteSpace=wrap;" vertex="1" parent="1">
          <mxGeometry x="280" y="680" width="87.5" height="75" as="geometry" />
        </mxCell>
        <mxCell id="PUch6x0PjKLB-Qv1Z2Le-37" value="Inbox" style="ellipse;html=1;whiteSpace=wrap;" vertex="1" parent="1">
          <mxGeometry x="280" y="770" width="87.5" height="75" as="geometry" />
        </mxCell>
        <mxCell id="PUch6x0PjKLB-Qv1Z2Le-38" value="admin" style="shape=umlActor;verticalLabelPosition=bottom;verticalAlign=top;html=1;outlineConnect=0;" vertex="1" parent="1">
          <mxGeometry x="560" y="695" width="30" height="60" as="geometry" />
        </mxCell>
        <mxCell id="PUch6x0PjKLB-Qv1Z2Le-39" value="" style="endArrow=none;html=1;rounded=0;entryX=0.5;entryY=0.5;entryDx=0;entryDy=0;entryPerimeter=0;" edge="1" parent="1" source="PUch6x0PjKLB-Qv1Z2Le-34" target="PUch6x0PjKLB-Qv1Z2Le-38">
          <mxGeometry width="50" height="50" relative="1" as="geometry">
            <mxPoint x="570" y="700" as="sourcePoint" />
            <mxPoint x="620" y="650" as="targetPoint" />
          </mxGeometry>
        </mxCell>
        <mxCell id="PUch6x0PjKLB-Qv1Z2Le-40" value="" style="endArrow=none;html=1;rounded=0;exitX=1;exitY=0.5;exitDx=0;exitDy=0;entryX=0.5;entryY=0.5;entryDx=0;entryDy=0;entryPerimeter=0;" edge="1" parent="1" source="PUch6x0PjKLB-Qv1Z2Le-36" target="PUch6x0PjKLB-Qv1Z2Le-38">
          <mxGeometry width="50" height="50" relative="1" as="geometry">
            <mxPoint x="540" y="880" as="sourcePoint" />
            <mxPoint x="590" y="830" as="targetPoint" />
          </mxGeometry>
        </mxCell>
        <mxCell id="PUch6x0PjKLB-Qv1Z2Le-41" value="" style="endArrow=none;html=1;rounded=0;" edge="1" parent="1" source="PUch6x0PjKLB-Qv1Z2Le-37" target="PUch6x0PjKLB-Qv1Z2Le-38">
          <mxGeometry width="50" height="50" relative="1" as="geometry">
            <mxPoint x="560" y="920" as="sourcePoint" />
            <mxPoint x="610" y="870" as="targetPoint" />
          </mxGeometry>
        </mxCell>
      </root>
    </mxGraphModel>
  </diagram>
</mxfile>
